<svg xmlns="http://www.w3.org/2000/svg" width="400" height="400"><path fill="#FFCD09" d="M200 0C89.543 0 0 89.543 0 200s89.543 200 200 200 200-89.543 200-200S310.457 0 200 0zm-21.272 234.453c-.021 8.527-.56 17.231-2.319 25.546-5.208 24.6-24.08 40.39-49.309 42.744-14.042 1.311-27.655.19-40.709-5.327-14.815-6.261-24.835-17.401-32.086-31.917l33.711-20.642c2.284 3.531 4.277 6.746 6.401 9.871 6.437 9.468 15.558 12.626 26.557 10.942 8.847-1.354 14.766-8.084 15.245-17.631.467-9.294.69-18.608.71-27.915.083-38.979.047-77.96.064-116.94 0-1.085.101-2.169.169-3.554h41.102c.068 1.314.193 2.613.197 3.913.131 43.637.373 87.273.267 130.91zm132.369 61.803c-30.098 12.147-59.621 9.303-87.064-8.39-10.106-6.516-17.401-16.005-23.29-27.117l33.704-19.441c2.114 2.831 4.023 5.51 6.055 8.091 11.745 14.917 29.725 20.508 47.715 14.875 11.974-3.747 17.51-13.231 14.357-24.614-1.285-4.638-4.327-8.08-8.291-10.393-6.012-3.508-12.188-6.803-18.535-9.651-13.515-6.064-27.383-11.376-39.468-20.237-17.249-12.65-24.513-30.187-22.966-50.878 1.906-25.521 16.478-42.954 41.312-49.272 20.739-5.277 41.165-3.841 59.466 8.946 7.103 4.962 14.895 14.437 18.588 21.961l-31.981 20.554c-.997-1.557-1.881-2.965-2.792-4.356-7.286-11.128-19.857-15.946-31.538-12.092-12.587 4.153-16.872 20.243-7.277 29.453 4.383 4.208 10.16 7.19 15.703 9.916 10.43 5.129 21.313 9.343 31.706 14.539 11.495 5.748 21.928 13.115 29.277 23.98 20.114 29.731 8.527 70.723-24.681 84.126z"/></svg>